<?xml version="1.0" standalone="no"?><!DOCTYPE svg PUBLIC "-//W3C//DTD SVG 1.1//EN" "http://www.w3.org/Graphics/SVG/1.1/DTD/svg11.dtd"><svg t="1537411965328" class="icon" style="" viewBox="0 0 1160 1024" version="1.1" xmlns="http://www.w3.org/2000/svg" p-id="1678" xmlns:xlink="http://www.w3.org/1999/xlink" width="226.5625" height="200"><defs><style type="text/css"></style></defs><path d="M535.483733 726.971733c254.3616-110.3872 393.898667 101.239467 601.224534-36.283733-266.001067 212.821333-316.586667-50.653867-601.224534 36.283733z m-43.349333-18.193066c261.632-215.7568 424.072533-17.7152 664.576-186.6752-201.796267 274.1248-449.3312 54.3744-664.576 186.6752zM764.142933 7.5776c-351.300267 21.162667-372.394667 215.552-372.394666 215.552-10.24-80.520533-68.334933-107.895467-68.334934-107.895467 9.1136 30.037333 9.284267 88.951467 1.262934 138.786134-9.216 40.209067-28.4672 71.099733-51.882667 98.167466-38.912 35.874133-89.463467 66.1504-89.463467 66.1504 27.306667 58.231467-49.937067 161.9968-92.637866 180.8384-31.675733 13.994667-55.978667 17.851733-55.978667 17.851734 30.72 49.664-30.242133 106.496-30.242133 106.496-4.437333 55.364267 13.585067 138.581333 35.328 164.352-10.8544-182.954667 245.725867-394.581333 311.159466-282.999467 37.000533 63.010133 0 221.013333-77.2096 261.870933-18.158933 9.6256-49.288533 10.24-69.666133 10.24 0 0 6.690133 17.237333 32.0512 24.302934 0 0-29.149867 32.631467-93.218133 23.893333 0 0 100.488533 39.389867 77.892266 91.2384 0 0 14.336 1.194667 28.8768-28.9792 0 0 115.029333 41.028267 208.213334-21.265067 0 0-113.493333 35.908267-124.552534-34.679466-13.482667-86.186667 119.944533-244.360533 240.7424-314.4704 201.5232-117.0432 332.731733-12.151467 507.733334-160.085334-239.5136 80.4864-142.336-156.194133-297.8816-153.634133 33.4848-5.8368 90.282667 5.8368 90.282666 5.8368 147.2512 40.7552 190.532267-41.642667 193.536-47.786667-51.3024 70.997333-336.213333-54.408533-336.213333-54.408533 92.637867-14.2336 128.136533-74.6496 137.5232-99.328-29.730133 41.642667-95.9488 43.178667-172.373333 31.505067-87.995733-13.4144-157.013333 17.271467-207.598934 89.122133 11.298133-180.667733 275.0464-220.672 275.0464-220.672z" p-id="1679" fill="#1296db"></path></svg>